REM DIRINDEX 1\2,1\3,1\4,1\6,1\5\7,1\5\8
REM DIRNAME cjc114,folder01,folder02,folder03,folder04,folder05,folder06,folder07
TITLE ""
FILE "DB4500_5th_6C_25.mp3" MP3
  TRACK 01 AUDIO
    TITLE "0:"
    INDEX 01 00:00:00
  TRACK 02 AUDIO
    TITLE "2:cjc114_4094"
    INDEX 01 00:00:01
  TRACK 03 AUDIO
    TITLE "0:"
    INDEX 01 00:01:07
  TRACK 04 AUDIO
    TITLE "3:cjc114_4095"
    INDEX 01 00:01:21
  TRACK 05 AUDIO
    TITLE "0:"
    INDEX 01 00:02:42
  TRACK 06 AUDIO
    TITLE "4:cjc114_4096"
    INDEX 01 00:02:61
  TRACK 07 AUDIO
    TITLE "0:"
    INDEX 01 00:04:74
  TRACK 08 AUDIO
    TITLE "2:cjc114_4097"
    INDEX 01 00:05:34
  TRACK 09 AUDIO
    TITLE "0:"
    INDEX 01 00:06:37
  TRACK 10 AUDIO
    TITLE "3:cjc114_4098"
    INDEX 01 00:06:51
  TRACK 11 AUDIO
    TITLE "0:"
    INDEX 01 00:07:74
  TRACK 12 AUDIO
    TITLE "4:cjc114_4099"
    INDEX 01 00:08:11
  TRACK 13 AUDIO
    TITLE "0:"
    INDEX 01 00:11:23
  TRACK 14 AUDIO
    TITLE "2:cjc114_4100"
    INDEX 01 00:11:60
  TRACK 15 AUDIO
    TITLE "0:"
    INDEX 01 00:12:71
  TRACK 16 AUDIO
    TITLE "3:cjc114_4101"
    INDEX 01 00:13:10
  TRACK 17 AUDIO
    TITLE "0:"
    INDEX 01 00:14:49
  TRACK 18 AUDIO
    TITLE "4:cjc114_4102"
    INDEX 01 00:14:60
  TRACK 19 AUDIO
    TITLE "0:"
    INDEX 01 00:17:59
  TRACK 20 AUDIO
    TITLE "2:cjc114_4103"
    INDEX 01 00:18:23
  TRACK 21 AUDIO
    TITLE "0:"
    INDEX 01 00:19:32
  TRACK 22 AUDIO
    TITLE "3:cjc114_4104"
    INDEX 01 00:19:48
  TRACK 23 AUDIO
    TITLE "0:"
    INDEX 01 00:20:61
  TRACK 24 AUDIO
    TITLE "4:cjc114_4105"
    INDEX 01 00:20:73
  TRACK 25 AUDIO
    TITLE "0:"
    INDEX 01 00:24:14
  TRACK 26 AUDIO
    TITLE "2:cjc114_4106"
    INDEX 01 00:24:51
  TRACK 27 AUDIO
    TITLE "0:"
    INDEX 01 00:25:58
  TRACK 28 AUDIO
    TITLE "3:cjc114_4107"
    INDEX 01 00:25:72
  TRACK 29 AUDIO
    TITLE "0:"
    INDEX 01 00:27:16
  TRACK 30 AUDIO
    TITLE "4:cjc114_4108"
    INDEX 01 00:27:32
  TRACK 31 AUDIO
    TITLE "0:"
    INDEX 01 00:29:58
  TRACK 32 AUDIO
    TITLE "2:cjc114_4109"
    INDEX 01 00:30:22
  TRACK 33 AUDIO
    TITLE "0:"
    INDEX 01 00:31:18
  TRACK 34 AUDIO
    TITLE "3:cjc114_4110"
    INDEX 01 00:31:31
  TRACK 35 AUDIO
    TITLE "0:"
    INDEX 01 00:32:56
  TRACK 36 AUDIO
    TITLE "4:cjc114_4111"
    INDEX 01 00:32:70
  TRACK 37 AUDIO
    TITLE "0:"
    INDEX 01 00:35:74
  TRACK 38 AUDIO
    TITLE "2:cjc114_4112"
    INDEX 01 00:36:40
  TRACK 39 AUDIO
    TITLE "0:"
    INDEX 01 00:37:57
  TRACK 40 AUDIO
    TITLE "3:cjc114_4113"
    INDEX 01 00:37:71
  TRACK 41 AUDIO
    TITLE "0:"
    INDEX 01 00:39:23
  TRACK 42 AUDIO
    TITLE "4:cjc114_4114"
    INDEX 01 00:39:39
  TRACK 43 AUDIO
    TITLE "0:"
    INDEX 01 00:42:49
  TRACK 44 AUDIO
    TITLE "2:cjc114_4115"
    INDEX 01 00:43:11
  TRACK 45 AUDIO
    TITLE "0:"
    INDEX 01 00:44:14
  TRACK 46 AUDIO
    TITLE "3:cjc114_4116"
    INDEX 01 00:44:30
  TRACK 47 AUDIO
    TITLE "0:"
    INDEX 01 00:45:43
  TRACK 48 AUDIO
    TITLE "4:cjc114_4117"
    INDEX 01 00:45:59
  TRACK 49 AUDIO
    TITLE "0:"
    INDEX 01 00:50:13
  TRACK 50 AUDIO
    TITLE "2:cjc114_4118"
    INDEX 01 00:50:54
  TRACK 51 AUDIO
    TITLE "0:"
    INDEX 01 00:51:67
  TRACK 52 AUDIO
    TITLE "3:cjc114_4119"
    INDEX 01 00:52:06
  TRACK 53 AUDIO
    TITLE "0:"
    INDEX 01 00:53:21
  TRACK 54 AUDIO
    TITLE "4:cjc114_4120"
    INDEX 01 00:53:37
  TRACK 55 AUDIO
    TITLE "0:"
    INDEX 01 00:57:74
  TRACK 56 AUDIO
    TITLE "2:cjc114_4121"
    INDEX 01 00:58:36
  TRACK 57 AUDIO
    TITLE "0:"
    INDEX 01 00:59:53
  TRACK 58 AUDIO
    TITLE "3:cjc114_4122"
    INDEX 01 00:59:67
  TRACK 59 AUDIO
    TITLE "0:"
    INDEX 01 01:01:03
  TRACK 60 AUDIO
    TITLE "4:cjc114_4123"
    INDEX 01 01:01:15
  TRACK 61 AUDIO
    TITLE "0:"
    INDEX 01 01:04:58
  TRACK 62 AUDIO
    TITLE "2:cjc114_4124"
    INDEX 01 01:05:21
  TRACK 63 AUDIO
    TITLE "0:"
    INDEX 01 01:06:32
  TRACK 64 AUDIO
    TITLE "3:cjc114_4125"
    INDEX 01 01:06:45
  TRACK 65 AUDIO
    TITLE "0:"
    INDEX 01 01:07:68
  TRACK 66 AUDIO
    TITLE "4:cjc114_4126"
    INDEX 01 01:08:05
  TRACK 67 AUDIO
    TITLE "0:"
    INDEX 01 01:11:51
  TRACK 68 AUDIO
    TITLE "2:cjc114_4127"
    INDEX 01 01:12:11
  TRACK 69 AUDIO
    TITLE "0:"
    INDEX 01 01:13:14
  TRACK 70 AUDIO
    TITLE "3:cjc114_4128"
    INDEX 01 01:13:28
  TRACK 71 AUDIO
    TITLE "0:"
    INDEX 01 01:14:31
  TRACK 72 AUDIO
    TITLE "4:cjc114_4129"
    INDEX 01 01:14:45
  TRACK 73 AUDIO
    TITLE "0:"
    INDEX 01 01:18:02
  TRACK 74 AUDIO
    TITLE "2:cjc114_4130"
    INDEX 01 01:18:41
  TRACK 75 AUDIO
    TITLE "0:"
    INDEX 01 01:19:46
  TRACK 76 AUDIO
    TITLE "3:cjc114_4131"
    INDEX 01 01:19:60
  TRACK 77 AUDIO
    TITLE "0:"
    INDEX 01 01:23:46
  TRACK 78 AUDIO
    TITLE "4:cjc114_4132"
    INDEX 01 01:23:60
  TRACK 79 AUDIO
    TITLE "0:"
    INDEX 01 01:27:08
